<svg xmlns="http://www.w3.org/2000/svg" xmlns:xlink="http://www.w3.org/1999/xlink" viewBox="0 0 3022.54 640"><defs><style>.cls-1{fill:url(#linear-gradient);}.cls-2{fill:#1e2347;}</style><linearGradient id="linear-gradient" x1="13.35" y1="12.87" x2="642.5" y2="642.01" gradientUnits="userSpaceOnUse"><stop offset="0.08" stop-color="#ff5274"/><stop offset="0.91" stop-color="#6446fa"/></linearGradient></defs><g id="Layer_2" data-name="Layer 2"><g id="Layer_6" data-name="Layer 6"><path class="cls-1" d="M524.87,369.61c-30.59,0-58.73,11-79.53,33-33-17.13-69.74-30.59-108.89-40.38,4.9-13.45,18.35-55,24.47-73.4a493.34,493.34,0,0,0,61.17,7.34c77.08,6.11,135.81-8.57,173.74-42.82,36.7-34.26,45.26-80.75,45.26-112.56C641.09,63.75,578.7.13,500.4.13c-4.9,0-48.94-3.67-89.32,28.14-25.69,20.8-58.72,106.44-83.19,177.4A374.46,374.46,0,0,1,230,164.07v-7.34C230,94.34,178.63,43,116.23,43S2.45,94.34,2.45,156.73,53.83,270.51,116.23,270.51c30.59,0,58.73-11,79.52-33,33,17.13,69.74,30.59,108.89,40.37-4.89,13.46-18.35,55.06-24.47,73.41A492.88,492.88,0,0,0,219,343.92c-77.08-6.12-135.8,8.57-173.73,42.82C8.56,421,0,467.49,0,499.3,0,576.38,62.4,640,140.7,640H148a137.39,137.39,0,0,0,82-28.14c25.69-20.8,58.73-106.44,83.2-177.4a374.54,374.54,0,0,1,97.87,41.6v7.34c0,62.39,51.39,113.78,113.79,113.78S638.65,545.79,638.65,483.4A113.57,113.57,0,0,0,524.87,369.61Zm47.71-179.84c-24.47,25.69-75.85,35.48-154.16,30.58-11-1.22-22-1.22-33-3.67q34.88-97.26,62.4-150.48c20.8-35.48,44-51.39,66.06-47.72,41.6,8.57,71,83.2,74.64,111.34C590.93,155.51,586,175.08,572.58,189.77ZM66.07,449.14c19.57-20.8,58.72-31.81,116.23-31.81,12.23,0,24.47,0,37.92,1.22,11,1.23,22,1.23,33,3.67q-34.87,97.27-62.4,150.49-33,53.22-66.07,47.71c-41.59-8.56-71-83.19-74.63-111.33C47.72,483.4,52.61,463.82,66.07,449.14Z"/><path class="cls-2" d="M953.61,140.24c0-67.09,32.67-100,99.21-100h85.91v84.17h-55.66c-32.67,0-36.3,20.74-36.3,39v41.47h92v82.95h-92V591.59H953.61V287.84h-69V203.67h69Zm350.88,451.35V204.89h-96.8l3.63,387.92h93.17Zm895.32,0V204.89H2103l3.63,387.92h93.16ZM1591.23,365.91l-93.16-20.73c-30.25-7.32-36.3-23.18-36.3-36.6,1.21-23.18,21.78-37.82,54.45-37.82,30.24,0,52,14.64,59.28,39h96.79c-8.46-74.41-58.07-111-153.65-111-35.09,0-151.24,8.54-151.24,109.79,0,91.49,73.8,115.89,96.79,120.77l85.91,19.51c18.14,3.66,41.13,12.2,41.13,37.82,0,24.4-20.57,37.82-58.08,37.82-35.08,0-73.8-14.64-81.06-46.36h-94.37c8.47,109.79,134.3,118.33,173,118.33,104.06,0,154.87-36.6,154.87-109.79C1685.6,405,1634.79,375.67,1591.23,365.91Zm364.18,0-93.16-20.73C1832,337.86,1826,322,1826,308.58c1.21-23.18,21.78-37.82,54.45-37.82,30.24,0,52,14.64,59.28,39h96.79c-8.46-74.41-58.07-111-153.65-111-35.09,0-151.24,8.54-151.24,109.79,0,91.49,73.8,115.89,96.79,120.77l85.91,19.51c18.14,3.66,41.13,12.2,41.13,37.82,0,24.4-20.57,37.82-58.08,37.82-35.08,0-73.8-14.64-81.06-46.36H1721.9c8.47,109.79,134.3,118.33,173,118.33,104.06,0,154.87-36.6,154.87-109.79C2049.78,405,1999,375.67,1955.41,365.91Zm912.27-169.56c-60.5,0-87.11,24.4-96.8,39L2760,251.25V204.89h-93.16V592.81H2760V356.15c0-63.43,46-86.61,84.69-86.61s84.69,23.18,84.69,86.61V592.81h93.16V351.28C3021.33,237.83,2941.48,196.35,2867.68,196.35Zm-256.5,173.22v53.68c0,111-62.92,173.22-177.86,173.22s-177.85-61-177.85-173.22V369.57c0-111,62.91-173.22,177.85-173.22S2611.18,258.57,2611.18,369.57ZM2512,356.15c0-48.79-27.82-85.39-78.64-85.39s-78.64,36.6-78.64,85.39v80.52c0,48.79,27.83,89.05,78.64,89.05S2512,485.46,2512,436.67ZM1304.49,40.21h-96.8v84.17h96.8Zm895.32,0H2103v84.17h96.79Z"/></g></g></svg>