<svg xmlns="http://www.w3.org/2000/svg" xmlns:xlink="http://www.w3.org/1999/xlink" viewBox="0 0 641.09 640"><defs><style>.cls-1{fill:url(#linear-gradient);}</style><linearGradient id="linear-gradient" x1="13.35" y1="12.87" x2="642.5" y2="642.01" gradientUnits="userSpaceOnUse"><stop offset="0.08" stop-color="#f05575"/><stop offset="0.91" stop-color="#5f5ca8"/></linearGradient></defs><g id="Layer_2" data-name="Layer 2"><g id="Layer_1-2" data-name="Layer 1"><path class="cls-1" d="M524.87,369.61c-30.59,0-58.73,11-79.53,33-33-17.13-69.74-30.59-108.89-40.38,4.9-13.45,18.35-55,24.47-73.4a493.34,493.34,0,0,0,61.17,7.34c77.08,6.11,135.81-8.57,173.74-42.82,36.7-34.26,45.26-80.75,45.26-112.56C641.09,63.75,578.7.13,500.4.13c-4.9,0-48.94-3.67-89.32,28.14-25.69,20.8-58.72,106.44-83.19,177.4A374.46,374.46,0,0,1,230,164.07v-7.34C230,94.34,178.63,43,116.23,43S2.45,94.34,2.45,156.73,53.83,270.51,116.23,270.51c30.59,0,58.73-11,79.52-33,33,17.13,69.74,30.59,108.89,40.37-4.89,13.46-18.35,55.06-24.47,73.41A492.88,492.88,0,0,0,219,343.92c-77.08-6.12-135.8,8.57-173.73,42.82C8.56,421,0,467.49,0,499.3,0,576.38,62.4,640,140.7,640H148a137.39,137.39,0,0,0,82-28.14c25.69-20.8,58.73-106.44,83.2-177.4a374.54,374.54,0,0,1,97.87,41.6v7.34c0,62.39,51.39,113.78,113.79,113.78S638.65,545.79,638.65,483.4A113.57,113.57,0,0,0,524.87,369.61Zm47.71-179.84c-24.47,25.69-75.85,35.48-154.16,30.58-11-1.22-22-1.22-33-3.67q34.88-97.26,62.4-150.48c20.8-35.48,44-51.39,66.06-47.72,41.6,8.57,71,83.2,74.64,111.34C590.93,155.51,586,175.08,572.58,189.77ZM66.07,449.14c19.57-20.8,58.72-31.81,116.23-31.81,12.23,0,24.47,0,37.92,1.22,11,1.23,22,1.23,33,3.67q-34.87,97.27-62.4,150.49-33,53.22-66.07,47.71c-41.59-8.56-71-83.19-74.63-111.33C47.72,483.4,52.61,463.82,66.07,449.14Z"/></g></g></svg>