<svg id="Layer_1" data-name="Layer 1" xmlns="http://www.w3.org/2000/svg" viewBox="0 0 281.03 30.44"><defs><style>.cls-1{fill:#fff;}</style></defs><polygon class="cls-1" points="67.6 15.89 73.13 15.89 73.13 14.39 67.6 14.39 67.6 11.15 75.84 11.15 75.84 9.65 65.93 9.65 65.93 21.09 76.14 21.09 76.14 19.61 67.6 19.61 67.6 15.89"/><path class="cls-1" d="M271.18,396.84a3.2,3.2,0,0,1-3.36,3.4,3.09,3.09,0,0,1-3.17-3.4V390H263v6.93a4.6,4.6,0,0,0,4.81,4.82c3.78,0,5-2.59,5-4.82V390h-1.64Z" transform="translate(-159.97 -380.31)"/><rect class="cls-1" x="122.06" y="9.65" width="1.64" height="11.44"/><polygon class="cls-1" points="143.3 18.61 135.18 9.65 133.56 9.65 133.56 21.09 135.2 21.09 135.2 12.05 143.33 21.09 144.93 21.09 144.93 9.65 143.3 9.65 143.3 18.61"/><rect class="cls-1" x="154.89" y="9.65" width="1.64" height="11.44"/><polygon class="cls-1" points="172.49 14.88 177.25 9.64 175.23 9.64 171.45 13.75 167.77 9.64 165.63 9.64 170.22 14.88 164.48 21.08 166.57 21.08 171.29 15.99 175.78 21.08 178.05 21.08 172.49 14.88"/><path class="cls-1" d="M248.58,389.5a6,6,0,0,0-6,6.2v0a5.9,5.9,0,0,0,6.08,6.07,6.2,6.2,0,0,0,2.67-.63l.93,1.08h1.9l-1.63-1.87a5.82,5.82,0,0,0,2.18-4.77v0a5.92,5.92,0,0,0-6.09-6.07m4.38,6.17a4.51,4.51,0,0,1-1.47,3.57l-.89-1h-1.91l1.56,1.79a4.29,4.29,0,0,1-1.6.33,4.42,4.42,0,0,1-4.39-4.64v-.05a4.37,4.37,0,0,1,4.29-4.68,4.44,4.44,0,0,1,4.42,4.67Z" transform="translate(-159.97 -380.31)"/><polygon class="cls-1" points="43.48 7.05 43.48 20.64 40.38 21.73 40.38 5.97 31.06 2.71 31.06 24.98 27.95 26.07 27.95 1.62 23.3 0 18.64 1.62 18.64 26.07 15.53 24.98 15.53 2.71 6.21 5.97 6.21 21.73 3.11 20.64 3.11 7.05 0 8.13 0 22.85 9.32 26.1 9.32 8.17 12.43 7.09 12.43 27.19 21.74 30.44 21.74 3.83 23.3 3.29 24.85 3.83 24.85 30.44 34.17 27.19 34.17 7.09 37.27 8.17 37.27 26.1 46.59 22.85 46.59 8.13 43.48 7.05"/><path class="cls-1" d="M212.5,402.13a2.81,2.81,0,0,0,2.8-2.81v0a2.8,2.8,0,1,0-5.6,0h0a2.79,2.79,0,0,0,2.8,2.8m0-.3a2.47,2.47,0,0,1-2.48-2.5h0a2.48,2.48,0,1,1,5,0v0a2.49,2.49,0,0,1-2.48,2.51m-1.16-1.11h.71v-.92h.45l.63.92H214l-.74-1.05a.89.89,0,0,0,.64-.9c0-.66-.5-1-1.17-1h-1.37Zm.71-1.5v-.8h.61c.3,0,.5.14.5.4s-.18.4-.5.4Z" transform="translate(-159.97 -380.31)"/><path class="cls-1" d="M377,389.94h2.27L383,395.4l3.69-5.46h2.27v11.55h-2.13v-8.28L383,398.65h-.07l-3.79-5.41v8.25H377Z" transform="translate(-159.97 -380.31)"/><path class="cls-1" d="M393.42,389.94h9v1.82h-6.86v3h6.08v1.83h-6.08v3.09h6.94v1.81h-9.07Z" transform="translate(-159.97 -380.31)"/><path class="cls-1" d="M409.36,391.83h-3.87v-1.89h9.86v1.89h-3.86v9.66h-2.13Z" transform="translate(-159.97 -380.31)"/><path class="cls-1" d="M421.71,389.86h2L429,401.49h-2.25l-1.23-2.79H419.8l-1.24,2.79h-2.18Zm3.05,7.05-2.1-4.62-2.08,4.62Z" transform="translate(-159.97 -380.31)"/><path class="cls-1" d="M432.49,389.94h2.13v9.7H441v1.85h-8.5Z" transform="translate(-159.97 -380.31)"/><line class="cls-1" x1="197.72" y1="0.72" x2="197.72" y2="29.95"/><rect class="cls-1" x="197.47" y="0.72" width="0.5" height="29.24"/></svg>