<svg
   xmlns:dc="http://purl.org/dc/elements/1.1/"
   xmlns:cc="http://creativecommons.org/ns#"
   xmlns:rdf="http://www.w3.org/1999/02/22-rdf-syntax-ns#"
   xmlns:svg="http://www.w3.org/2000/svg"
   xmlns="http://www.w3.org/2000/svg"
   version="1.1"
   viewBox="0 0 189.96001 135.41429">
<path
   class="st0"
   d="m 0,74.574287 c 0,11.57 6.78,20.96 15.15,20.96 v -41.92 c -8.37,0 -15.15,9.38 -15.15,20.96 z"
   id="path4"
   style="fill:#FFF" />
<path
   class="st0"
   d="m 189.96,74.574287 c 0,11.57 -6.78,20.96 -15.15,20.96 v -41.92 c 8.36,0 15.15,9.38 15.15,20.96 z"
   id="path6"
   style="fill:#FFF" />
<polygon
   class="st0"
   points="251.69,352.49 239.69,339.9 236.83,342.08 245.85,357.4 "
   id="polygon8"
   style="fill:#FFF"
   transform="translate(-211.79,-328.57571)" />
<path
   class="st0"
   d="m 26.81,1.5542867 c 1.4,1.94 0.32,5.13 -2.42,7.13 -2.75,2.0000003 -6.13,2.0400003 -7.53,0.11 -1.41,-1.94 -0.33,-5.13 2.42,-7.13 2.75,-2.00000001 6.12,-2.05000001 7.53,-0.11"
   id="path10"
   style="fill:#FFF" />
<polygon
   class="st0"
   points="363.13,352.49 375.12,339.9 377.98,342.08 368.96,357.4 "
   id="polygon12"
   style="fill:#FFF"
   transform="translate(-211.79,-328.57571)" />
<path
   class="st0"
   d="m 164.3,1.4242867 c -1.4,1.94 -0.32,5.13 2.42,7.13 2.75,2.0000003 6.13,2.0400003 7.53,0.11 1.41,-1.94 0.33,-5.13 -2.42,-7.14 -2.75,-1.99000001 -6.12,-2.04000001 -7.53,-0.1"
   id="path14"
   style="fill:#FFF" />
<path
   class="st0"
   d="M 104.21,14.744287 H 85.75 c -29.56,0 -54.39,16.89 -64.76,38.81 v 43.05 c 10.37,21.920003 35.19,38.810003 64.76,38.810003 h 18.46 c 29.56,0 54.39,-16.89 64.76,-38.810003 v -43.05 c -10.37,-21.92 -35.2,-38.81 -64.76,-38.81 z m 40.26,91.760003 -0.33,0.77 -0.01,0.03 -0.7,0.51 c -0.54,0.4 -13.63,9.71 -43.55,10.2 h -0.03 -8.37 c -29.92,-0.49 -43,-9.81 -43.55,-10.2 l -0.7,-0.51 -0.35,-0.8 c -0.18,-0.42 -4.44,-10.440003 -4.44,-25.240003 0,-14.8 4.25,-24.82 4.44,-25.24 l 0.35,-0.8 0.7,-0.51 c 0.54,-0.4 13.63,-9.71 43.55,-10.2 h 0.05 8.35 c 29.92,0.49 43,9.81 43.55,10.2 l 0.7,0.51 0.35,0.8 c 0.18,0.42 4.44,10.44 4.44,25.24 0,14.8 -4.27,24.820003 -4.45,25.240003 z"
   id="path16"
   style="fill:#FFF" />
<g
   class="st1"
   id="g22"
   style="opacity:0.5"
   transform="translate(-211.79,-328.57571)">
	<path
   class="st2"
   d="m 268.2,391.51 c -1.37,3.31 -4.1,10.03 -4.1,18.48 0,8.5 2.77,15.26 4.13,18.54 9.52,5.44 21.4,8.31 35.33,8.55 h 5.03 l -36.81,-47.2 c -1.53,0.62 -2.73,1.19 -3.58,1.63 z"
   id="path18"
   style="fill:#FFF" />
	<path
   class="st2"
   d="m 283.57,385.94 39.26,50.33 c 3.3,-0.44 6.46,-1.05 9.48,-1.84 l -39.39,-50.51 c -3.49,0.54 -6.6,1.26 -9.35,2.02 z"
   id="path20"
   style="fill:#FFF" />
</g>
</svg>
